<?xml version="1.0" encoding="iso-8859-1"?>
<!-- Generator: Adobe Illustrator 19.0.0, SVG Export Plug-In . SVG Version: 6.00 Build 0)  -->
<svg version="1.1" id="Capa_1" xmlns="http://www.w3.org/2000/svg" xmlns:xlink="http://www.w3.org/1999/xlink" x="0px" y="0px"
	 viewBox="0 0 512 512" style="enable-background:new 0 0 512 512;" xml:space="preserve">
<rect x="8.607" y="153.216" style="fill:#FED322;" width="495.909" height="350.745"/>
<rect x="256.561" y="153.216" style="fill:#FF9911;" width="247.96" height="350.745"/>
<rect x="356.124" y="218.284" style="fill:#C6C5CB;" width="41.909" height="29.287"/>
<polygon style="fill:#FF9911;" points="468.006,90.86 468.006,153.214 8.907,153.214 19.853,90.71 34.321,8.04 201.706,8.04 
	217.901,90.71 217.931,90.86 "/>
<polygon style="fill:#D07400;" points="468.006,90.86 468.006,153.214 8.907,153.214 19.853,90.71 217.901,90.71 217.931,90.86 "/>
<path style="fill:#C6C5CB;" d="M462.675,378.271L462.675,378.271c-10.573,2.55-21.212-3.953-23.762-14.526l-19.731-127.612
	l17.406-4.198l40.613,122.575C479.751,365.082,473.247,375.721,462.675,378.271z"/>
<g>
	<rect x="64" y="25.502" style="fill:#FFFFFF;" width="18.421" height="14.967"/>
	<polygon style="fill:#FFFFFF;" points="111.982,25.502 111.982,40.47 175.016,40.47 180.046,66.149 194.734,63.272 187.336,25.502 
			"/>
	<rect x="355.745" y="108.324" style="fill:#FFFFFF;" width="20.136" height="14.967"/>
</g>
<path style="fill:#020202;" d="M475.494,145.733V83.376H224.091L207.87,0.557H28.037L2.62,145.733H1.123v8.552L0,160.701h1.114
	V503.96l0.009,7.484H16.09H512v-365.71H475.494z M40.611,15.524H195.55l16.221,82.818h248.756v47.391h-9.979v-37.412h-54.536v14.967
	h39.569v22.445H17.815L40.611,15.524z M16.09,160.701h332.563v14.146h-15.717v14.967h15.717v11.47h-15.717v14.967h15.717v11.47
	h-15.717v14.967h15.717v11.47h-15.717v14.967h15.717v11.47h-15.717v14.967h15.717v11.47h-15.717v14.967h15.717v11.47h-15.717v14.967
	h15.717v11.47h-15.717v14.967h15.717v11.47h-15.717v14.967h15.717v11.47h-15.717v14.967h15.717v11.47h-15.717v14.967h15.717v11.47
	h-15.717v14.967h15.717v15.849H16.09V160.701z M389.659,238.159v1.669H363.62v-15.787h20.281c-1.528,1.032-2.984,2.188-4.344,3.479
	L389.659,238.159z M497.033,496.476H363.62v-15.849h15.717v-14.967H363.62v-11.47h15.717v-14.967H363.62v-11.47h15.717v-14.967
	H363.62v-11.47h15.717v-14.967H363.62v-11.47h15.717V359.91H363.62v-11.47h15.717v-14.967H363.62v-11.47h15.717v-14.967H363.62
	v-11.47h15.717v-14.967H363.62v-11.47h15.717v-14.331h25.289v-21.351c2.477,0.278,4.815,1.044,6.911,2.213l19.98,129.23l0.121,0.611
	c1.702,7.057,6.051,13.029,12.244,16.815c4.324,2.642,9.184,4,14.125,4c2.138,0,4.292-0.254,6.422-0.768
	c7.057-1.702,13.029-6.051,16.815-12.244c3.787-6.194,4.934-13.491,3.232-20.547l-42.95-129.709l-16.502,3.98
	c-5.487-4.986-12.62-8.128-20.398-8.607v-9.344h-25.289v-7.79h-15.717v-11.47h15.717v-14.967h-15.717v-14.146h111.872h21.539
	V496.476z M433.404,246.123l36.583,110.41c0.674,3.086,0.14,6.258-1.514,8.962c-1.701,2.783-4.383,4.737-7.555,5.501
	c-3.172,0.763-6.449,0.249-9.231-1.452c-2.704-1.653-4.626-4.233-5.433-7.287l-17.817-115.236L433.404,246.123z"/>
<g>
	<rect x="189.617" y="471.532" style="fill:#FFFFFF;" width="17.368" height="14.967"/>
	<polygon style="fill:#FFFFFF;" points="41.036,441.997 26.068,441.997 26.068,486.498 170.075,486.498 170.075,471.53 
		41.036,471.53 	"/>
	<rect x="26.063" y="317.159" style="fill:#FFFFFF;" width="14.967" height="16.283"/>
	<polygon style="fill:#FFFFFF;" points="41.036,185.646 97.888,185.646 97.888,170.679 26.068,170.679 26.068,297.619 
		41.036,297.619 	"/>
</g>
<g>
</g>
<g>
</g>
<g>
</g>
<g>
</g>
<g>
</g>
<g>
</g>
<g>
</g>
<g>
</g>
<g>
</g>
<g>
</g>
<g>
</g>
<g>
</g>
<g>
</g>
<g>
</g>
<g>
</g>
</svg>
